Coordinates
version=1
nRows=9
nColumns=24
inDegrees=yes

Units are S.I. units (second, meters, Newtons, ...)
Angles are in degrees.

endheader
time	pelvis_tilt	pelvis_list	pelvis_rotation	pelvis_tx	pelvis_ty	pelvis_tz	hip_flexion_r	hip_adduction_r	hip_rotation_r	knee_angle_r	ankle_angle_r	subtalar_angle_r	mtp_angle_r	hip_flexion_l	hip_adduction_l	hip_rotation_l	knee_angle_l	ankle_angle_l	subtalar_angle_l	mtp_angle_l	lumbar_extension	lumbar_bending	lumbar_rotation
      1.35783333	     -1.20219992	      1.05648666	     -5.77625975	      0.85940431	      0.96045377	      0.30727420	    -21.18480937	     -1.01388647	     -0.62578155	     -5.77086914	     19.43118372	      3.29489455	      1.64244911	     27.16239168	     -1.16371662	     -1.81679446	      7.47814391	      1.74956665	     -5.16164610	      1.58269006	    -13.17510600	      3.68915321	     10.44068853
      1.36200000	     -1.18112372	      1.16688388	     -5.86366167	      0.86542402	      0.95972151	      0.30707563	    -21.39730534	     -1.22006782	     -0.68006889	     -6.08637810	     19.26107362	      3.33847890	      1.77055899	     27.28988041	     -1.08677757	     -1.54100077	      6.73314889	      1.87144287	     -5.46704568	      1.59744223	    -13.18775148	      3.47970916	     10.44176741
      1.36616667	     -1.15364756	      1.26642760	     -5.95279474	      0.87148644	      0.95902171	      0.30685205	    -21.60573502	     -1.41798325	     -0.76486721	     -6.42497418	     19.05865761	      3.37637776	      1.86530813	     27.41630874	     -1.01183531	     -1.31489477	      5.94293892	      1.91277484	     -5.81629151	      1.60902328	    -13.18101472	      3.29859756	     10.44793393
      1.37033333	     -1.16735281	      1.37812630	     -6.03031312	      0.87759509	      0.95825894	      0.30654854	    -21.74021326	     -1.63135616	     -0.93341484	     -6.83092301	     18.92780169	      3.61880632	      2.30103396	     27.53367593	     -0.91483935	     -0.85542249	      5.24255745	      1.68346430	     -6.61732597	      1.65155289	    -13.15597632	      3.12977269	     10.47959175
      1.37450000	     -1.14634048	      1.51550770	     -6.11913806	      0.88379260	      0.95759187	      0.30632034	    -21.94431920	     -1.86544429	     -1.01039797	     -7.16111320	     18.66023261	      3.58854405	      2.42763556	     27.65433660	     -0.79252047	     -0.67452492	      4.41628394	      1.67498198	     -6.93685663	      1.66723135	    -13.13167490	      2.88675956	     10.47389097
      1.37866667	     -1.14017278	      1.64064523	     -6.18991996	      0.89002207	      0.95690947	      0.30601035	    -22.12467253	     -2.08530103	     -1.12479141	     -7.49948595	     18.28098519	      3.52471254	      8.71623231	     27.75143834	     -0.66355957	     -0.28056212	      3.66565906	      1.37430454	     -7.72078529	      2.47589190	    -13.11930657	      2.71270629	     10.45350157
      1.38283333	     -1.17101454	      1.80235644	     -6.29702679	      0.89632877	      0.95622529	      0.30574558	    -22.23476855	     -2.35306882	     -1.24318836	     -7.90371132	     18.01355111	      3.59804093	      8.78599532	     27.88901727	     -0.51399047	     -0.08596491	      2.89096228	      1.04951542	     -8.30108840	      2.47298056	    -13.03136181	      2.45624530	     10.53765453
      1.38700000	     -1.18937804	      1.96494768	     -6.38960539	      0.90268551	      0.95557624	      0.30544594	    -22.36199706	     -2.61655216	     -1.36110886	     -8.29992719	     17.69978460	      3.60619623	      8.91770565	     28.00951229	     -0.34833149	      0.13969229	      2.11570930	      0.67036371	     -8.94725504	      2.48287213	    -12.95338141	      2.21267585	     10.55517235
      1.39116667	     -1.21273266	      2.14178260	     -6.49721444	      0.90907634	      0.95495577	      0.30515327	    -22.45889910	     -2.89969743	     -1.47303116	     -8.74157380	     17.34803545	      3.59018559	      9.13821709	     28.11892016	     -0.16935117	      0.35019526	      1.36419083	      0.21556486	     -9.65102010	      2.49810495	    -12.87317457	      1.95260733	     10.58405302
